<svg xmlns="http://www.w3.org/2000/svg" viewBox="0 0 1500 780">
  <defs>
    <linearGradient id="bgGrad" x1="0" y1="0" x2="0" y2="1">
      <stop offset="0%" stop-color="#0a0e1a"/>
      <stop offset="100%" stop-color="#0d1224"/>
    </linearGradient>
    <linearGradient id="navGrad" x1="0" y1="0" x2="0" y2="1">
      <stop offset="0%" stop-color="#111827"/>
      <stop offset="100%" stop-color="#0f1629"/>
    </linearGradient>
    <filter id="shadow">
      <feDropShadow dx="0" dy="2" stdDeviation="3" flood-color="rgba(0,0,0,0.3)"/>
    </filter>
  </defs>

  <rect width="1500" height="780" fill="url(#bgGrad)"/>

  <!-- ===== TOP NAV BAR ===== -->
  <rect width="1500" height="40" fill="url(#navGrad)"/>
  <line x1="0" y1="40" x2="1500" y2="40" stroke="#1e293b" stroke-width="1"/>
  <text x="20" y="26" font-family="Arial, sans-serif" font-size="14" fill="#64748b">←</text>
  <text x="46" y="26" font-family="Arial, sans-serif" font-size="13" fill="#f59e0b">🚀</text>
  <text x="68" y="27" font-family="Arial, sans-serif" font-size="13" font-weight="bold" fill="#e2e8f0">ecommerce-platform</text>
  <text x="224" y="27" font-family="Arial, sans-serif" font-size="12" fill="#94a3b8">📋 Pipeline</text>
  <text x="316" y="27" font-family="Arial, sans-serif" font-size="12" font-weight="bold" fill="#22c55e">📁 Repo Structure</text>
  <rect x="310" y="36" width="110" height="3" rx="1.5" fill="#22c55e"/>
  <text x="444" y="27" font-family="Arial, sans-serif" font-size="12" fill="#94a3b8">📦 Artifactory</text>
  <text x="556" y="27" font-family="Arial, sans-serif" font-size="12" fill="#94a3b8">● Helm Chart Repo</text>
  <text x="694" y="27" font-family="Arial, sans-serif" font-size="12" fill="#94a3b8">⚙ Argo App Repo</text>
  <text x="830" y="27" font-family="Arial, sans-serif" font-size="12" fill="#94a3b8">🖥 Kube Terminal</text>

  <!-- ===== FILE COMPOSITION BAR ===== -->
  <text x="80" y="72" font-family="Arial, sans-serif" font-size="12" fill="#94a3b8">File Composition by Size</text>
  <rect x="80" y="82" width="720" height="8" rx="4" fill="#f59e0b"/>
  <rect x="800" y="82" width="180" height="8" rx="0" fill="#3b82f6"/>
  <rect x="980" y="82" width="100" height="8" rx="0" fill="#94a3b8"/>
  <rect x="1080" y="82" width="70" height="8" rx="0" fill="#06b6d4"/>
  <rect x="1150" y="82" width="50" height="8" rx="0" fill="#a78bfa"/>
  <rect x="1200" y="82" width="60" height="8" rx="0" fill="#f97316"/>
  <rect x="1260" y="82" width="30" height="8" rx="4" fill="#64748b"/>

  <!-- Legend -->
  <circle cx="85" cy="108" r="4" fill="#f59e0b"/>
  <text x="95" y="112" font-family="Arial, sans-serif" font-size="9" fill="#94a3b8">.js (58.2%)</text>
  <circle cx="180" cy="108" r="4" fill="#3b82f6"/>
  <text x="190" y="112" font-family="Arial, sans-serif" font-size="9" fill="#94a3b8">.tsx (14.8%)</text>
  <circle cx="275" cy="108" r="4" fill="#94a3b8"/>
  <text x="285" y="112" font-family="Arial, sans-serif" font-size="9" fill="#94a3b8">.json (8.1%)</text>
  <circle cx="370" cy="108" r="4" fill="#06b6d4"/>
  <text x="380" y="112" font-family="Arial, sans-serif" font-size="9" fill="#94a3b8">.ts (5.7%)</text>
  <circle cx="440" cy="108" r="4" fill="#a78bfa"/>
  <text x="450" y="112" font-family="Arial, sans-serif" font-size="9" fill="#94a3b8">.css (4.3%)</text>
  <circle cx="520" cy="108" r="4" fill="#f97316"/>
  <text x="530" y="112" font-family="Arial, sans-serif" font-size="9" fill="#94a3b8">.md (3.2%)</text>

  <!-- ===== STATS BOXES ===== -->
  <rect x="80" y="128" width="64" height="48" rx="6" fill="#1e293b" stroke="#334155" stroke-width="1"/>
  <text x="112" y="148" text-anchor="middle" font-family="Arial, sans-serif" font-size="9" fill="#94a3b8">Files</text>
  <text x="112" y="168" text-anchor="middle" font-family="Arial, sans-serif" font-size="16" font-weight="bold" fill="#3b82f6">4</text>

  <rect x="154" y="128" width="64" height="48" rx="6" fill="#1e293b" stroke="#334155" stroke-width="1"/>
  <text x="186" y="148" text-anchor="middle" font-family="Arial, sans-serif" font-size="9" fill="#94a3b8">Routes</text>
  <text x="186" y="168" text-anchor="middle" font-family="Arial, sans-serif" font-size="16" font-weight="bold" fill="#22c55e">5</text>

  <rect x="228" y="128" width="72" height="48" rx="6" fill="#1e293b" stroke="#334155" stroke-width="1"/>
  <text x="264" y="148" text-anchor="middle" font-family="Arial, sans-serif" font-size="9" fill="#94a3b8">Functions</text>
  <text x="264" y="168" text-anchor="middle" font-family="Arial, sans-serif" font-size="16" font-weight="bold" fill="#f59e0b">2</text>

  <rect x="310" y="128" width="64" height="48" rx="6" fill="#1e293b" stroke="#334155" stroke-width="1"/>
  <text x="342" y="148" text-anchor="middle" font-family="Arial, sans-serif" font-size="9" fill="#94a3b8">Classes</text>
  <text x="342" y="168" text-anchor="middle" font-family="Arial, sans-serif" font-size="16" font-weight="bold" fill="#f97316">0</text>

  <rect x="384" y="128" width="64" height="48" rx="6" fill="#1e293b" stroke="#334155" stroke-width="1"/>
  <text x="416" y="148" text-anchor="middle" font-family="Arial, sans-serif" font-size="9" fill="#94a3b8">Models</text>
  <text x="416" y="168" text-anchor="middle" font-family="Arial, sans-serif" font-size="16" font-weight="bold" fill="#a78bfa">0</text>

  <rect x="458" y="128" width="72" height="48" rx="6" fill="#1e293b" stroke="#334155" stroke-width="1"/>
  <text x="494" y="148" text-anchor="middle" font-family="Arial, sans-serif" font-size="9" fill="#94a3b8">Databases</text>
  <text x="494" y="168" text-anchor="middle" font-family="Arial, sans-serif" font-size="16" font-weight="bold" fill="#ef4444">0</text>

  <!-- ===== VIEW TABS ===== -->
  <rect x="80" y="192" width="106" height="30" rx="6" fill="#ef4444" stroke="#ef4444" stroke-width="1"/>
  <text x="133" y="212" text-anchor="middle" font-family="Arial, sans-serif" font-size="11" font-weight="bold" fill="white">API Route Map</text>

  <rect x="196" y="192" width="140" height="30" rx="6" fill="transparent" stroke="#475569" stroke-width="1"/>
  <text x="266" y="212" text-anchor="middle" font-family="Arial, sans-serif" font-size="11" fill="#94a3b8">Architecture Overview</text>

  <rect x="346" y="192" width="124" height="30" rx="6" fill="transparent" stroke="#475569" stroke-width="1"/>
  <text x="408" y="212" text-anchor="middle" font-family="Arial, sans-serif" font-size="11" fill="#94a3b8">Code Distribution</text>

  <!-- ===== API ROUTE MAP HEADER ===== -->
  <rect x="80" y="236" width="1340" height="38" fill="#111827" stroke="#1e293b" stroke-width="1"/>
  <text x="110" y="260" font-family="Arial, sans-serif" font-size="14" font-weight="bold" fill="#e2e8f0">API Route Map</text>
  <text x="110" y="270" font-family="Arial, sans-serif" font-size="10" fill="#64748b">API endpoints and their handler flow</text>

  <!-- Action buttons -->
  <rect x="1136" y="246" width="58" height="22" rx="4" fill="transparent" stroke="#00d4ff" stroke-width="1"/>
  <text x="1165" y="262" text-anchor="middle" font-family="Arial, sans-serif" font-size="10" fill="#00d4ff">&lt;/&gt; Code</text>
  <rect x="1202" y="246" width="50" height="22" rx="4" fill="transparent" stroke="#475569" stroke-width="1"/>
  <text x="1227" y="262" text-anchor="middle" font-family="Arial, sans-serif" font-size="10" fill="#94a3b8">■ Copy</text>
  <rect x="1260" y="246" width="44" height="22" rx="4" fill="transparent" stroke="#475569" stroke-width="1"/>
  <text x="1282" y="262" text-anchor="middle" font-family="Arial, sans-serif" font-size="10" fill="#94a3b8">⬇ SVG</text>
  <rect x="1312" y="246" width="44" height="22" rx="4" fill="transparent" stroke="#475569" stroke-width="1"/>
  <text x="1334" y="262" text-anchor="middle" font-family="Arial, sans-serif" font-size="10" fill="#94a3b8">⬇ PNG</text>

  <!-- ===== CANVAS ===== -->
  <rect x="80" y="280" width="1340" height="490" rx="10" fill="#0d1224" stroke="#1e293b" stroke-width="1"/>

  <!-- Zoom controls -->
  <rect x="1320" y="296" width="24" height="22" rx="4" fill="#1e293b" stroke="#334155" stroke-width="1"/>
  <text x="1332" y="312" text-anchor="middle" font-family="Arial, sans-serif" font-size="14" fill="#94a3b8">+</text>
  <rect x="1350" y="296" width="24" height="22" rx="4" fill="#1e293b" stroke="#334155" stroke-width="1"/>
  <text x="1362" y="312" text-anchor="middle" font-family="Arial, sans-serif" font-size="14" fill="#94a3b8">−</text>
  <rect x="1380" y="296" width="24" height="22" rx="4" fill="#1e293b" stroke="#334155" stroke-width="1"/>
  <text x="1392" y="312" text-anchor="middle" font-family="Arial, sans-serif" font-size="12" fill="#94a3b8">⟳</text>
  <text x="1420" y="312" font-family="Arial, sans-serif" font-size="10" fill="#475569">100%</text>

  <!-- ===== ROUTE MAP GRAPH ===== -->
  <!-- Client circle -->
  <circle cx="220" cy="500" r="34" fill="#f3f4f6" stroke="#d1d5db" stroke-width="1.5"/>
  <text x="220" y="505" text-anchor="middle" font-family="Arial, sans-serif" font-size="12" fill="#1f2937">Client</text>

  <!-- ===== products.js file box ===== -->
  <rect x="350" y="330" width="250" height="80" rx="8" fill="#fefce8" stroke="#f59e0b" stroke-width="1.5"/>
  <text x="475" y="354" text-anchor="middle" font-family="Arial, sans-serif" font-size="12" font-weight="bold" fill="#92400e">products.js</text>
  <rect x="370" y="366" width="80" height="28" rx="4" fill="#fef3c7" stroke="#fcd34d" stroke-width="1"/>
  <text x="410" y="385" text-anchor="middle" font-family="Arial, sans-serif" font-size="11" fill="#92400e">GET /</text>

  <!-- Arrow: Client → products.js -->
  <line x1="254" y1="480" x2="350" y2="380" stroke="#94a3b8" stroke-width="1.5"/>
  <polygon points="346,378 354,374 350,384" fill="#94a3b8"/>

  <!-- ===== index.js file box ===== -->
  <rect x="350" y="440" width="250" height="80" rx="8" fill="#fefce8" stroke="#f59e0b" stroke-width="1.5"/>
  <text x="475" y="464" text-anchor="middle" font-family="Arial, sans-serif" font-size="12" font-weight="bold" fill="#92400e">index.js</text>
  <rect x="370" y="476" width="80" height="28" rx="4" fill="#fef3c7" stroke="#fcd34d" stroke-width="1"/>
  <text x="410" y="495" text-anchor="middle" font-family="Arial, sans-serif" font-size="11" fill="#92400e">GET /</text>

  <!-- Arrow: Client → index.js -->
  <line x1="254" y1="500" x2="350" y2="490" stroke="#94a3b8" stroke-width="1.5"/>
  <polygon points="346,486 354,490 346,494" fill="#94a3b8"/>

  <!-- ===== app.js file box ===== -->
  <rect x="350" y="550" width="250" height="180" rx="8" fill="#fefce8" stroke="#f59e0b" stroke-width="1.5"/>
  <text x="475" y="576" text-anchor="middle" font-family="Arial, sans-serif" font-size="12" font-weight="bold" fill="#92400e">app.js</text>

  <rect x="370" y="590" width="90" height="28" rx="4" fill="#fef3c7" stroke="#fcd34d" stroke-width="1"/>
  <text x="415" y="609" text-anchor="middle" font-family="Arial, sans-serif" font-size="11" fill="#92400e">ROUTE /</text>

  <rect x="370" y="628" width="90" height="28" rx="4" fill="#e0e7ff" stroke="#a5b4fc" stroke-width="1"/>
  <text x="415" y="647" text-anchor="middle" font-family="Arial, sans-serif" font-size="11" fill="#3730a3">products</text>

  <rect x="370" y="666" width="90" height="28" rx="4" fill="#fef3c7" stroke="#fcd34d" stroke-width="1"/>
  <text x="415" y="685" text-anchor="middle" font-family="Arial, sans-serif" font-size="11" fill="#92400e">GET env</text>

  <!-- Arrow: Client → app.js -->
  <line x1="254" y1="520" x2="350" y2="620" stroke="#94a3b8" stroke-width="1.5"/>
  <polygon points="346,616 354,622 346,626" fill="#94a3b8"/>
</svg>