<svg xmlns="http://www.w3.org/2000/svg" viewBox="0 0 1500 820">
  <defs>
    <linearGradient id="bgGrad" x1="0" y1="0" x2="0" y2="1">
      <stop offset="0%" stop-color="#0a0e1a"/>
      <stop offset="100%" stop-color="#0d1224"/>
    </linearGradient>
    <linearGradient id="navGrad" x1="0" y1="0" x2="0" y2="1">
      <stop offset="0%" stop-color="#111827"/>
      <stop offset="100%" stop-color="#0f1629"/>
    </linearGradient>
    <filter id="shadow">
      <feDropShadow dx="0" dy="2" stdDeviation="3" flood-color="rgba(0,0,0,0.3)"/>
    </filter>
  </defs>

  <rect width="1500" height="820" fill="url(#bgGrad)"/>

  <!-- ===== TOP NAV BAR ===== -->
  <rect width="1500" height="40" fill="url(#navGrad)"/>
  <line x1="0" y1="40" x2="1500" y2="40" stroke="#1e293b" stroke-width="1"/>
  <text x="20" y="26" font-family="Arial, sans-serif" font-size="14" fill="#64748b">←</text>
  <text x="46" y="26" font-family="Arial, sans-serif" font-size="13" fill="#f59e0b">🚀</text>
  <text x="68" y="27" font-family="Arial, sans-serif" font-size="13" font-weight="bold" fill="#e2e8f0">ecommerce-platform</text>
  <text x="224" y="27" font-family="Arial, sans-serif" font-size="12" fill="#94a3b8">📋 Pipeline</text>
  <text x="316" y="27" font-family="Arial, sans-serif" font-size="12" font-weight="bold" fill="#22c55e">📁 Repo Structure</text>
  <rect x="310" y="36" width="110" height="3" rx="1.5" fill="#22c55e"/>
  <text x="444" y="27" font-family="Arial, sans-serif" font-size="12" fill="#94a3b8">📦 Artifactory</text>
  <text x="556" y="27" font-family="Arial, sans-serif" font-size="12" fill="#94a3b8">● Helm Chart Repo</text>
  <text x="694" y="27" font-family="Arial, sans-serif" font-size="12" fill="#94a3b8">⚙ Argo App Repo</text>
  <text x="830" y="27" font-family="Arial, sans-serif" font-size="12" fill="#94a3b8">🖥 Kube Terminal</text>

  <!-- ===== REPO HEADER CARD ===== -->
  <rect x="80" y="64" width="1340" height="140" rx="12" fill="#111827" stroke="#1e293b" stroke-width="1" filter="url(#shadow)"/>

  <text x="110" y="96" font-family="Arial, sans-serif" font-size="12" fill="#00d4ff">← Back to Repositories</text>

  <!-- Folder icon + name -->
  <text x="110" y="134" font-family="Arial, sans-serif" font-size="24" fill="#f59e0b">📁</text>
  <text x="146" y="136" font-family="Arial, sans-serif" font-size="26" font-weight="bold" fill="#e2e8f0">ecommerce</text>

  <!-- Stats boxes -->
  <rect x="1100" y="80" width="80" height="52" rx="8" fill="#0d1224" stroke="#1e293b" stroke-width="1"/>
  <text x="1140" y="100" text-anchor="middle" font-family="Arial, sans-serif" font-size="9" fill="#94a3b8">Files</text>
  <text x="1140" y="122" text-anchor="middle" font-family="Arial, sans-serif" font-size="18" font-weight="bold" fill="#e2e8f0">2847</text>

  <rect x="1192" y="80" width="80" height="52" rx="8" fill="#0d1224" stroke="#1e293b" stroke-width="1"/>
  <text x="1232" y="100" text-anchor="middle" font-family="Arial, sans-serif" font-size="9" fill="#94a3b8">Folders</text>
  <text x="1232" y="122" text-anchor="middle" font-family="Arial, sans-serif" font-size="18" font-weight="bold" fill="#e2e8f0">256</text>

  <rect x="1284" y="80" width="110" height="52" rx="8" fill="#0d1224" stroke="#1e293b" stroke-width="1"/>
  <text x="1339" y="100" text-anchor="middle" font-family="Arial, sans-serif" font-size="9" fill="#94a3b8">Total Size</text>
  <text x="1339" y="122" text-anchor="middle" font-family="Arial, sans-serif" font-size="18" font-weight="bold" fill="#e2e8f0">8.2 MB</text>

  <!-- Branch selector -->
  <text x="110" y="174" font-family="Arial, sans-serif" font-size="12" fill="#94a3b8">Repository file structure</text>
  <rect x="290" y="158" width="160" height="28" rx="6" fill="#1e293b" stroke="#334155" stroke-width="1"/>
  <text x="310" y="177" font-family="Arial, sans-serif" font-size="12" fill="#e2e8f0">🌿 main (default)</text>
  <text x="436" y="177" font-family="Arial, sans-serif" font-size="10" fill="#64748b">▼</text>

  <!-- Disconnect button -->
  <rect x="480" y="158" width="120" height="28" rx="6" fill="transparent" stroke="#ef4444" stroke-width="1"/>
  <text x="504" y="177" font-family="Arial, sans-serif" font-size="11" fill="#ef4444">Disconnect Repo</text>

  <!-- ===== VIEW MODE TABS ===== -->
  <rect x="100" y="220" width="94" height="32" rx="16" fill="#22c55e"/>
  <text x="118" y="241" font-family="Arial, sans-serif" font-size="11" font-weight="bold" fill="white">🌳 Tree View</text>

  <rect x="204" y="220" width="110" height="32" rx="16" fill="transparent" stroke="#475569" stroke-width="1"/>
  <text x="220" y="241" font-family="Arial, sans-serif" font-size="11" fill="#94a3b8">◇ Package Deps</text>

  <rect x="324" y="220" width="100" height="32" rx="16" fill="transparent" stroke="#475569" stroke-width="1"/>
  <text x="340" y="241" font-family="Arial, sans-serif" font-size="11" fill="#94a3b8">🗺 Code Map</text>

  <rect x="434" y="220" width="68" height="32" rx="16" fill="transparent" stroke="#475569" stroke-width="1"/>
  <text x="448" y="241" font-family="Arial, sans-serif" font-size="11" fill="#94a3b8">🔌 APIs</text>

  <rect x="512" y="220" width="86" height="32" rx="16" fill="transparent" stroke="#475569" stroke-width="1"/>
  <text x="524" y="241" font-family="Arial, sans-serif" font-size="11" fill="#94a3b8">📊 Database</text>

  <rect x="608" y="220" width="78" height="32" rx="16" fill="transparent" stroke="#475569" stroke-width="1"/>
  <text x="620" y="241" font-family="Arial, sans-serif" font-size="11" fill="#94a3b8">💥 Impact</text>

  <rect x="696" y="220" width="90" height="32" rx="16" fill="transparent" stroke="#475569" stroke-width="1"/>
  <text x="710" y="241" font-family="Arial, sans-serif" font-size="11" fill="#94a3b8">🏗 Arch Map</text>

  <!-- ===== FILE COMPOSITION BAR ===== -->
  <rect x="80" y="272" width="1340" height="80" rx="10" fill="#111827" stroke="#1e293b" stroke-width="1"/>
  <text x="110" y="296" font-family="Arial, sans-serif" font-size="12" fill="#94a3b8">File Composition by Size</text>

  <!-- Color bar -->
  <rect x="110" y="308" width="720" height="10" rx="5" fill="#f59e0b"/>
  <rect x="830" y="308" width="180" height="10" rx="0" fill="#3b82f6"/>
  <rect x="1010" y="308" width="100" height="10" rx="0" fill="#94a3b8"/>
  <rect x="1110" y="308" width="70" height="10" rx="0" fill="#06b6d4"/>
  <rect x="1180" y="308" width="50" height="10" rx="0" fill="#a78bfa"/>
  <rect x="1230" y="308" width="60" height="10" rx="0" fill="#f97316"/>
  <rect x="1290" y="308" width="30" height="10" rx="5" fill="#64748b"/>

  <!-- Legend -->
  <circle cx="115" cy="336" r="4" fill="#f59e0b"/>
  <text x="125" y="340" font-family="Arial, sans-serif" font-size="9" fill="#94a3b8">.js (58.2%)</text>
  <circle cx="210" cy="336" r="4" fill="#3b82f6"/>
  <text x="220" y="340" font-family="Arial, sans-serif" font-size="9" fill="#94a3b8">.tsx (14.8%)</text>
  <circle cx="305" cy="336" r="4" fill="#94a3b8"/>
  <text x="315" y="340" font-family="Arial, sans-serif" font-size="9" fill="#94a3b8">.json (8.1%)</text>
  <circle cx="400" cy="336" r="4" fill="#06b6d4"/>
  <text x="410" y="340" font-family="Arial, sans-serif" font-size="9" fill="#94a3b8">.ts (5.7%)</text>
  <circle cx="480" cy="336" r="4" fill="#a78bfa"/>
  <text x="490" y="340" font-family="Arial, sans-serif" font-size="9" fill="#94a3b8">.css (4.3%)</text>
  <circle cx="560" cy="336" r="4" fill="#f97316"/>
  <text x="570" y="340" font-family="Arial, sans-serif" font-size="9" fill="#94a3b8">.md (3.2%)</text>
  <circle cx="640" cy="336" r="4" fill="#64748b"/>
  <text x="650" y="340" font-family="Arial, sans-serif" font-size="9" fill="#94a3b8">.yaml (1.4%)</text>

  <!-- ===== AI PROJECT ASSISTANT ===== -->
  <rect x="80" y="370" width="1340" height="260" rx="10" fill="#111827" stroke="#1e293b" stroke-width="1"/>
  <text x="110" y="398" font-family="Arial, sans-serif" font-size="16" fill="#94a3b8">🤖</text>
  <text x="138" y="398" font-family="Arial, sans-serif" font-size="14" font-weight="bold" fill="#e2e8f0">AI Project Assistant</text>
  <text x="1280" y="398" font-family="Arial, sans-serif" font-size="11" fill="#64748b">Ask about this repo's structure</text>

  <!-- Chat bubble -->
  <text x="750" y="470" text-anchor="middle" font-family="Arial, sans-serif" font-size="28" fill="#475569">💬</text>
  <text x="750" y="500" text-anchor="middle" font-family="Arial, sans-serif" font-size="12" fill="#64748b">Ask me anything about this project's structure...</text>

  <!-- Suggestion chips -->
  <rect x="400" y="518" width="170" height="28" rx="6" fill="transparent" stroke="#334155" stroke-width="1"/>
  <text x="420" y="537" font-family="Arial, sans-serif" font-size="10" fill="#94a3b8">What is this project about?</text>

  <rect x="580" y="518" width="180" height="28" rx="6" fill="transparent" stroke="#334155" stroke-width="1"/>
  <text x="600" y="537" font-family="Arial, sans-serif" font-size="10" fill="#94a3b8">Explain the folder structure</text>

  <rect x="770" y="518" width="166" height="28" rx="6" fill="transparent" stroke="#334155" stroke-width="1"/>
  <text x="790" y="537" font-family="Arial, sans-serif" font-size="10" fill="#94a3b8">What tech stack is used?</text>

  <rect x="946" y="518" width="170" height="28" rx="6" fill="transparent" stroke="#334155" stroke-width="1"/>
  <text x="966" y="537" font-family="Arial, sans-serif" font-size="10" fill="#94a3b8">Where is the entry point?</text>

  <!-- Input bar -->
  <rect x="110" y="570" width="1260" height="34" rx="8" fill="#0d1224" stroke="#1e293b" stroke-width="1"/>
  <text x="130" y="592" font-family="Arial, sans-serif" font-size="12" fill="#475569">Ask about the project structure...</text>
  <rect x="1340" y="574" width="24" height="26" rx="6" fill="#2563eb"/>
  <text x="1352" y="592" text-anchor="middle" font-family="Arial, sans-serif" font-size="12" fill="white">▶</text>

  <!-- ===== FILE TREE ===== -->
  <rect x="80" y="644" width="1340" height="166" rx="10" fill="#111827" stroke="#1e293b" stroke-width="1"/>

  <!-- Tree rows -->
  <text x="110" y="676" font-family="Arial, sans-serif" font-size="12" fill="#64748b">▶</text>
  <text x="130" y="676" font-family="Arial, sans-serif" font-size="14" fill="#f59e0b">📁</text>
  <text x="152" y="676" font-family="Arial, sans-serif" font-size="13" font-weight="bold" fill="#e2e8f0">src</text>
  <text x="1370" y="676" text-anchor="end" font-family="Arial, sans-serif" font-size="11" fill="#475569">12 folders, 38 files</text>

  <text x="110" y="706" font-family="Arial, sans-serif" font-size="12" fill="#64748b">▶</text>
  <text x="130" y="706" font-family="Arial, sans-serif" font-size="14" fill="#f59e0b">📁</text>
  <text x="152" y="706" font-family="Arial, sans-serif" font-size="13" font-weight="bold" fill="#e2e8f0">public</text>
  <text x="1370" y="706" text-anchor="end" font-family="Arial, sans-serif" font-size="11" fill="#475569">3 folders, 8 files</text>

  <text x="110" y="736" font-family="Arial, sans-serif" font-size="12" fill="#64748b">▶</text>
  <text x="130" y="736" font-family="Arial, sans-serif" font-size="14" fill="#94a3b8">📦</text>
  <text x="152" y="736" font-family="Arial, sans-serif" font-size="13" font-weight="bold" fill="#e2e8f0">node_modules</text>
  <text x="1370" y="736" text-anchor="end" font-family="Arial, sans-serif" font-size="11" fill="#475569">104 folders, 1 files</text>

  <text x="110" y="766" font-family="Arial, sans-serif" font-size="12" fill="#64748b">▶</text>
  <text x="130" y="766" font-family="Arial, sans-serif" font-size="14" fill="#f59e0b">📁</text>
  <text x="152" y="766" font-family="Arial, sans-serif" font-size="13" font-weight="bold" fill="#e2e8f0">config</text>
  <text x="1370" y="766" text-anchor="end" font-family="Arial, sans-serif" font-size="11" fill="#475569">2 files</text>

  <line x1="100" y1="690" x2="1400" y2="690" stroke="#1e293b" stroke-width="0.5"/>
  <line x1="100" y1="720" x2="1400" y2="720" stroke="#1e293b" stroke-width="0.5"/>
  <line x1="100" y1="750" x2="1400" y2="750" stroke="#1e293b" stroke-width="0.5"/>
</svg>