<svg xmlns="http://www.w3.org/2000/svg" viewBox="0 0 1500 820">
  <defs>
    <linearGradient id="bgGrad" x1="0" y1="0" x2="0" y2="1">
      <stop offset="0%" stop-color="#0a0e1a"/>
      <stop offset="100%" stop-color="#0d1224"/>
    </linearGradient>
    <linearGradient id="navGrad" x1="0" y1="0" x2="0" y2="1">
      <stop offset="0%" stop-color="#111827"/>
      <stop offset="100%" stop-color="#0f1629"/>
    </linearGradient>
    <filter id="shadow">
      <feDropShadow dx="0" dy="2" stdDeviation="3" flood-color="rgba(0,0,0,0.3)"/>
    </filter>
  </defs>

  <rect width="1500" height="820" fill="url(#bgGrad)"/>

  <!-- ===== TOP NAV BAR ===== -->
  <rect width="1500" height="40" fill="url(#navGrad)"/>
  <line x1="0" y1="40" x2="1500" y2="40" stroke="#1e293b" stroke-width="1"/>
  <text x="20" y="26" font-family="Arial, sans-serif" font-size="14" fill="#64748b">←</text>
  <text x="46" y="26" font-family="Arial, sans-serif" font-size="13" fill="#f59e0b">🚀</text>
  <text x="68" y="27" font-family="Arial, sans-serif" font-size="13" font-weight="bold" fill="#e2e8f0">ecommerce-platform</text>
  <text x="224" y="27" font-family="Arial, sans-serif" font-size="12" fill="#94a3b8">📋 Pipeline</text>
  <text x="316" y="27" font-family="Arial, sans-serif" font-size="12" font-weight="bold" fill="#22c55e">📁 Repo Structure</text>
  <rect x="310" y="36" width="110" height="3" rx="1.5" fill="#22c55e"/>
  <text x="444" y="27" font-family="Arial, sans-serif" font-size="12" fill="#94a3b8">📦 Artifactory</text>
  <text x="556" y="27" font-family="Arial, sans-serif" font-size="12" fill="#94a3b8">● Helm Chart Repo</text>
  <text x="694" y="27" font-family="Arial, sans-serif" font-size="12" fill="#94a3b8">⚙ Argo App Repo</text>
  <text x="830" y="27" font-family="Arial, sans-serif" font-size="12" fill="#94a3b8">🖥 Kube Terminal</text>

  <!-- ===== FILE COMPOSITION BAR ===== -->
  <text x="80" y="72" font-family="Arial, sans-serif" font-size="12" fill="#94a3b8">File Composition by Size</text>
  <rect x="80" y="82" width="720" height="8" rx="4" fill="#f59e0b"/>
  <rect x="800" y="82" width="180" height="8" rx="0" fill="#3b82f6"/>
  <rect x="980" y="82" width="100" height="8" rx="0" fill="#94a3b8"/>
  <rect x="1080" y="82" width="70" height="8" rx="0" fill="#06b6d4"/>
  <rect x="1150" y="82" width="50" height="8" rx="0" fill="#a78bfa"/>
  <rect x="1200" y="82" width="60" height="8" rx="0" fill="#f97316"/>
  <rect x="1260" y="82" width="30" height="8" rx="4" fill="#64748b"/>

  <circle cx="85" cy="108" r="4" fill="#f59e0b"/>
  <text x="95" y="112" font-family="Arial, sans-serif" font-size="9" fill="#94a3b8">.js (58.2%)</text>
  <circle cx="180" cy="108" r="4" fill="#3b82f6"/>
  <text x="190" y="112" font-family="Arial, sans-serif" font-size="9" fill="#94a3b8">.tsx (14.8%)</text>
  <circle cx="275" cy="108" r="4" fill="#94a3b8"/>
  <text x="285" y="112" font-family="Arial, sans-serif" font-size="9" fill="#94a3b8">.json (8.1%)</text>
  <circle cx="370" cy="108" r="4" fill="#06b6d4"/>
  <text x="380" y="112" font-family="Arial, sans-serif" font-size="9" fill="#94a3b8">.ts (5.7%)</text>
  <circle cx="440" cy="108" r="4" fill="#a78bfa"/>
  <text x="450" y="112" font-family="Arial, sans-serif" font-size="9" fill="#94a3b8">.css (4.3%)</text>
  <circle cx="520" cy="108" r="4" fill="#f97316"/>
  <text x="530" y="112" font-family="Arial, sans-serif" font-size="9" fill="#94a3b8">.md (3.2%)</text>

  <!-- ===== STATS BOXES ===== -->
  <rect x="80" y="128" width="64" height="48" rx="6" fill="#1e293b" stroke="#334155" stroke-width="1"/>
  <text x="112" y="148" text-anchor="middle" font-family="Arial, sans-serif" font-size="9" fill="#94a3b8">Files</text>
  <text x="112" y="168" text-anchor="middle" font-family="Arial, sans-serif" font-size="16" font-weight="bold" fill="#3b82f6">4</text>

  <rect x="154" y="128" width="64" height="48" rx="6" fill="#1e293b" stroke="#334155" stroke-width="1"/>
  <text x="186" y="148" text-anchor="middle" font-family="Arial, sans-serif" font-size="9" fill="#94a3b8">Routes</text>
  <text x="186" y="168" text-anchor="middle" font-family="Arial, sans-serif" font-size="16" font-weight="bold" fill="#22c55e">5</text>

  <rect x="228" y="128" width="72" height="48" rx="6" fill="#1e293b" stroke="#334155" stroke-width="1"/>
  <text x="264" y="148" text-anchor="middle" font-family="Arial, sans-serif" font-size="9" fill="#94a3b8">Functions</text>
  <text x="264" y="168" text-anchor="middle" font-family="Arial, sans-serif" font-size="16" font-weight="bold" fill="#f59e0b">2</text>

  <rect x="310" y="128" width="64" height="48" rx="6" fill="#1e293b" stroke="#334155" stroke-width="1"/>
  <text x="342" y="148" text-anchor="middle" font-family="Arial, sans-serif" font-size="9" fill="#94a3b8">Classes</text>
  <text x="342" y="168" text-anchor="middle" font-family="Arial, sans-serif" font-size="16" font-weight="bold" fill="#f97316">0</text>

  <rect x="384" y="128" width="64" height="48" rx="6" fill="#1e293b" stroke="#334155" stroke-width="1"/>
  <text x="416" y="148" text-anchor="middle" font-family="Arial, sans-serif" font-size="9" fill="#94a3b8">Models</text>
  <text x="416" y="168" text-anchor="middle" font-family="Arial, sans-serif" font-size="16" font-weight="bold" fill="#a78bfa">0</text>

  <rect x="458" y="128" width="72" height="48" rx="6" fill="#1e293b" stroke="#334155" stroke-width="1"/>
  <text x="494" y="148" text-anchor="middle" font-family="Arial, sans-serif" font-size="9" fill="#94a3b8">Databases</text>
  <text x="494" y="168" text-anchor="middle" font-family="Arial, sans-serif" font-size="16" font-weight="bold" fill="#ef4444">0</text>

  <!-- ===== VIEW TABS ===== -->
  <rect x="80" y="192" width="106" height="30" rx="6" fill="transparent" stroke="#475569" stroke-width="1"/>
  <text x="133" y="212" text-anchor="middle" font-family="Arial, sans-serif" font-size="11" fill="#94a3b8">API Route Map</text>

  <rect x="196" y="192" width="140" height="30" rx="6" fill="#f59e0b" stroke="#f59e0b" stroke-width="1"/>
  <text x="266" y="212" text-anchor="middle" font-family="Arial, sans-serif" font-size="11" font-weight="bold" fill="white">Architecture Overview</text>

  <rect x="346" y="192" width="124" height="30" rx="6" fill="transparent" stroke="#475569" stroke-width="1"/>
  <text x="408" y="212" text-anchor="middle" font-family="Arial, sans-serif" font-size="11" fill="#94a3b8">Code Distribution</text>

  <!-- ===== ARCH MAP HEADER ===== -->
  <rect x="80" y="236" width="1340" height="38" fill="#111827" stroke="#1e293b" stroke-width="1"/>
  <text x="110" y="260" font-family="Arial, sans-serif" font-size="14" font-weight="bold" fill="#e2e8f0">Architecture Overview</text>
  <text x="110" y="270" font-family="Arial, sans-serif" font-size="10" fill="#64748b">High-level system architecture: Client → Frontend → Backend → Logic → Data</text>

  <rect x="1066" y="246" width="58" height="22" rx="4" fill="transparent" stroke="#00d4ff" stroke-width="1"/>
  <text x="1095" y="262" text-anchor="middle" font-family="Arial, sans-serif" font-size="10" fill="#00d4ff">&lt;/&gt; Code</text>
  <rect x="1132" y="246" width="50" height="22" rx="4" fill="transparent" stroke="#475569" stroke-width="1"/>
  <text x="1157" y="262" text-anchor="middle" font-family="Arial, sans-serif" font-size="10" fill="#94a3b8">■ Copy</text>
  <rect x="1190" y="246" width="44" height="22" rx="4" fill="transparent" stroke="#475569" stroke-width="1"/>
  <text x="1212" y="262" text-anchor="middle" font-family="Arial, sans-serif" font-size="10" fill="#94a3b8">⬇ SVG</text>
  <rect x="1242" y="246" width="44" height="22" rx="4" fill="transparent" stroke="#475569" stroke-width="1"/>
  <text x="1264" y="262" text-anchor="middle" font-family="Arial, sans-serif" font-size="10" fill="#94a3b8">⬇ PNG</text>

  <!-- Zoom controls -->
  <rect x="1300" y="246" width="24" height="22" rx="4" fill="#1e293b" stroke="#334155" stroke-width="1"/>
  <text x="1312" y="262" text-anchor="middle" font-family="Arial, sans-serif" font-size="14" fill="#94a3b8">+</text>
  <rect x="1330" y="246" width="24" height="22" rx="4" fill="#1e293b" stroke="#334155" stroke-width="1"/>
  <text x="1342" y="262" text-anchor="middle" font-family="Arial, sans-serif" font-size="14" fill="#94a3b8">−</text>
  <rect x="1360" y="246" width="24" height="22" rx="4" fill="#1e293b" stroke="#334155" stroke-width="1"/>
  <text x="1372" y="262" text-anchor="middle" font-family="Arial, sans-serif" font-size="12" fill="#94a3b8">⟳</text>
  <text x="1396" y="262" font-family="Arial, sans-serif" font-size="10" fill="#475569">50%</text>

  <!-- ===== CANVAS ===== -->
  <rect x="80" y="280" width="1340" height="530" rx="10" fill="#0d1224" stroke="#1e293b" stroke-width="1"/>

  <!-- ===== DEPENDENCIES GROUP (top) ===== -->
  <text x="610" y="310" font-family="Arial, sans-serif" font-size="10" fill="#64748b" font-style="italic">Dependencies</text>

  <!-- External Packages node -->
  <rect x="530" y="404" width="130" height="30" rx="6" fill="#dbeafe" stroke="#93c5fd" stroke-width="1.5"/>
  <text x="595" y="424" text-anchor="middle" font-family="Arial, sans-serif" font-size="11" fill="#1e40af">External Packages</text>

  <!-- Dependency nodes -->
  <rect x="700" y="316" width="120" height="26" rx="4" fill="#e0e7ff" stroke="#a5b4fc" stroke-width="1"/>
  <text x="760" y="334" text-anchor="middle" font-family="Arial, sans-serif" font-size="10" fill="#4338ca">@types/node-types</text>

  <rect x="700" y="350" width="120" height="26" rx="4" fill="#e0e7ff" stroke="#a5b4fc" stroke-width="1"/>
  <text x="760" y="368" text-anchor="middle" font-family="Arial, sans-serif" font-size="10" fill="#4338ca">@types/express</text>

  <rect x="700" y="384" width="100" height="26" rx="4" fill="#e0e7ff" stroke="#a5b4fc" stroke-width="1"/>
  <text x="750" y="402" text-anchor="middle" font-family="Arial, sans-serif" font-size="10" fill="#4338ca">cors</text>

  <rect x="700" y="418" width="100" height="26" rx="4" fill="#e0e7ff" stroke="#a5b4fc" stroke-width="1"/>
  <text x="750" y="436" text-anchor="middle" font-family="Arial, sans-serif" font-size="10" fill="#4338ca">dotenv</text>

  <rect x="700" y="452" width="120" height="26" rx="4" fill="#e0e7ff" stroke="#a5b4fc" stroke-width="1"/>
  <text x="760" y="470" text-anchor="middle" font-family="Arial, sans-serif" font-size="10" fill="#4338ca">express-globals</text>

  <rect x="700" y="486" width="100" height="26" rx="4" fill="#e0e7ff" stroke="#a5b4fc" stroke-width="1"/>
  <text x="750" y="504" text-anchor="middle" font-family="Arial, sans-serif" font-size="10" fill="#4338ca">helmet</text>

  <rect x="700" y="520" width="100" height="26" rx="4" fill="#e0e7ff" stroke="#a5b4fc" stroke-width="1"/>
  <text x="750" y="538" text-anchor="middle" font-family="Arial, sans-serif" font-size="10" fill="#4338ca">compression</text>

  <rect x="700" y="554" width="110" height="26" rx="4" fill="#e0e7ff" stroke="#a5b4fc" stroke-width="1"/>
  <text x="755" y="572" text-anchor="middle" font-family="Arial, sans-serif" font-size="10" fill="#4338ca">array-flatten</text>

  <!-- Lines: External Packages → deps -->
  <line x1="660" y1="410" x2="700" y2="330" stroke="#94a3b8" stroke-width="1"/>
  <line x1="660" y1="410" x2="700" y2="364" stroke="#94a3b8" stroke-width="1"/>
  <line x1="660" y1="410" x2="700" y2="398" stroke="#94a3b8" stroke-width="1"/>
  <line x1="660" y1="420" x2="700" y2="432" stroke="#94a3b8" stroke-width="1"/>
  <line x1="660" y1="420" x2="700" y2="466" stroke="#94a3b8" stroke-width="1"/>
  <line x1="660" y1="420" x2="700" y2="500" stroke="#94a3b8" stroke-width="1"/>
  <line x1="660" y1="420" x2="700" y2="534" stroke="#94a3b8" stroke-width="1"/>
  <line x1="660" y1="420" x2="700" y2="568" stroke="#94a3b8" stroke-width="1"/>

  <!-- ===== BACKEND LAYER (middle) ===== -->
  <text x="490" y="600" font-family="Arial, sans-serif" font-size="10" fill="#64748b" font-style="italic">Backend Layer</text>
  <text x="490" y="612" font-family="Arial, sans-serif" font-size="9" fill="#475569">app.js</text>

  <!-- Client / UI circle -->
  <circle cx="380" y="680" r="30" fill="#f3f4f6" stroke="#d1d5db" stroke-width="1.5"/>
  <text x="380" y="676" text-anchor="middle" font-family="Arial, sans-serif" font-size="9" fill="#1f2937">Client / UI</text>

  <!-- Backend / API node -->
  <rect x="440" y="660" width="110" height="30" rx="6" fill="#dbeafe" stroke="#93c5fd" stroke-width="1.5"/>
  <text x="495" y="680" text-anchor="middle" font-family="Arial, sans-serif" font-size="11" fill="#1e40af">Backend / API</text>

  <!-- Arrow Client → Backend -->
  <line x1="410" y1="680" x2="440" y2="678" stroke="#94a3b8" stroke-width="1.5"/>

  <!-- Route nodes -->
  <rect x="590" y="620" width="80" height="24" rx="4" fill="#e0e7ff" stroke="#a5b4fc" stroke-width="1"/>
  <text x="630" y="637" text-anchor="middle" font-family="Arial, sans-serif" font-size="10" fill="#4338ca">ROUTE /</text>

  <rect x="590" y="650" width="80" height="24" rx="4" fill="#e0e7ff" stroke="#a5b4fc" stroke-width="1"/>
  <text x="630" y="667" text-anchor="middle" font-family="Arial, sans-serif" font-size="10" fill="#4338ca">products</text>

  <rect x="590" y="680" width="80" height="24" rx="4" fill="#e0e7ff" stroke="#a5b4fc" stroke-width="1"/>
  <text x="630" y="697" text-anchor="middle" font-family="Arial, sans-serif" font-size="10" fill="#4338ca">GET env</text>

  <rect x="590" y="710" width="80" height="24" rx="4" fill="#e0e7ff" stroke="#a5b4fc" stroke-width="1"/>
  <text x="630" y="727" text-anchor="middle" font-family="Arial, sans-serif" font-size="10" fill="#4338ca">GET /</text>

  <rect x="590" y="740" width="80" height="24" rx="4" fill="#e0e7ff" stroke="#a5b4fc" stroke-width="1"/>
  <text x="630" y="757" text-anchor="middle" font-family="Arial, sans-serif" font-size="10" fill="#4338ca">GET /</text>

  <!-- Lines: Backend → routes -->
  <line x1="550" y1="670" x2="590" y2="632" stroke="#94a3b8" stroke-width="1"/>
  <line x1="550" y1="675" x2="590" y2="662" stroke="#94a3b8" stroke-width="1"/>
  <line x1="550" y1="678" x2="590" y2="692" stroke="#94a3b8" stroke-width="1"/>
  <line x1="550" y1="680" x2="590" y2="722" stroke="#94a3b8" stroke-width="1"/>
  <line x1="550" y1="682" x2="590" y2="752" stroke="#94a3b8" stroke-width="1"/>

  <!-- ===== BUSINESS LOGIC GROUP (bottom) ===== -->
  <text x="550" y="780" font-family="Arial, sans-serif" font-size="10" fill="#64748b" font-style="italic">Business Logic</text>

  <rect x="530" y="790" width="110" height="24" rx="4" fill="#dbeafe" stroke="#93c5fd" stroke-width="1.5"/>
  <text x="585" y="807" text-anchor="middle" font-family="Arial, sans-serif" font-size="10" fill="#1e40af">Logic / Services</text>

  <rect x="680" y="786" width="110" height="24" rx="4" fill="#e0e7ff" stroke="#a5b4fc" stroke-width="1"/>
  <text x="735" y="803" text-anchor="middle" font-family="Arial, sans-serif" font-size="10" fill="#4338ca">populateProducts</text>

  <line x1="640" y1="800" x2="680" y2="798" stroke="#94a3b8" stroke-width="1"/>
</svg>