<svg xmlns="http://www.w3.org/2000/svg" viewBox="0 0 1500 780">
  <defs>
    <linearGradient id="bgGrad" x1="0" y1="0" x2="0" y2="1">
      <stop offset="0%" stop-color="#0a0e1a"/>
      <stop offset="100%" stop-color="#0d1224"/>
    </linearGradient>
    <linearGradient id="navGrad" x1="0" y1="0" x2="0" y2="1">
      <stop offset="0%" stop-color="#111827"/>
      <stop offset="100%" stop-color="#0f1629"/>
    </linearGradient>
  </defs>

  <rect width="1500" height="780" fill="url(#bgGrad)"/>

  <!-- ===== TOP NAV BAR ===== -->
  <rect width="1500" height="40" fill="url(#navGrad)"/>
  <line x1="0" y1="40" x2="1500" y2="40" stroke="#1e293b" stroke-width="1"/>
  <text x="20" y="26" font-family="Arial, sans-serif" font-size="14" fill="#64748b">←</text>
  <text x="46" y="26" font-family="Arial, sans-serif" font-size="13" fill="#f59e0b">🚀</text>
  <text x="68" y="27" font-family="Arial, sans-serif" font-size="13" font-weight="bold" fill="#e2e8f0">ecommerce-platform</text>
  <text x="224" y="27" font-family="Arial, sans-serif" font-size="12" fill="#94a3b8">📋 Pipeline</text>
  <text x="316" y="27" font-family="Arial, sans-serif" font-size="12" font-weight="bold" fill="#22c55e">📁 Repo Structure</text>
  <rect x="310" y="36" width="110" height="3" rx="1.5" fill="#22c55e"/>
  <text x="444" y="27" font-family="Arial, sans-serif" font-size="12" fill="#94a3b8">📦 Artifactory</text>
  <text x="556" y="27" font-family="Arial, sans-serif" font-size="12" fill="#94a3b8">● Helm Chart Repo</text>
  <text x="694" y="27" font-family="Arial, sans-serif" font-size="12" fill="#94a3b8">⚙ Argo App Repo</text>
  <text x="830" y="27" font-family="Arial, sans-serif" font-size="12" fill="#94a3b8">🖥 Kube Terminal</text>

  <!-- ===== REPO HEADER ===== -->
  <rect x="80" y="64" width="1340" height="120" rx="12" fill="#111827" stroke="#1e293b" stroke-width="1"/>
  <text x="110" y="92" font-family="Arial, sans-serif" font-size="12" fill="#00d4ff">← Back to Repositories</text>
  <text x="110" y="126" font-family="Arial, sans-serif" font-size="24" fill="#f59e0b">📁</text>
  <text x="146" y="128" font-family="Arial, sans-serif" font-size="24" font-weight="bold" fill="#e2e8f0">ecommerce</text>

  <!-- Stats -->
  <rect x="1100" y="78" width="80" height="46" rx="8" fill="#0d1224" stroke="#1e293b" stroke-width="1"/>
  <text x="1140" y="96" text-anchor="middle" font-family="Arial, sans-serif" font-size="9" fill="#94a3b8">Files</text>
  <text x="1140" y="116" text-anchor="middle" font-family="Arial, sans-serif" font-size="16" font-weight="bold" fill="#e2e8f0">2847</text>
  <rect x="1192" y="78" width="80" height="46" rx="8" fill="#0d1224" stroke="#1e293b" stroke-width="1"/>
  <text x="1232" y="96" text-anchor="middle" font-family="Arial, sans-serif" font-size="9" fill="#94a3b8">Folders</text>
  <text x="1232" y="116" text-anchor="middle" font-family="Arial, sans-serif" font-size="16" font-weight="bold" fill="#e2e8f0">256</text>
  <rect x="1284" y="78" width="110" height="46" rx="8" fill="#0d1224" stroke="#1e293b" stroke-width="1"/>
  <text x="1339" y="96" text-anchor="middle" font-family="Arial, sans-serif" font-size="9" fill="#94a3b8">Total Size</text>
  <text x="1339" y="116" text-anchor="middle" font-family="Arial, sans-serif" font-size="16" font-weight="bold" fill="#e2e8f0">8.2 MB</text>

  <!-- Branch -->
  <text x="110" y="162" font-family="Arial, sans-serif" font-size="12" fill="#94a3b8">Repository file structure</text>
  <rect x="290" y="148" width="160" height="26" rx="6" fill="#1e293b" stroke="#334155" stroke-width="1"/>
  <text x="310" y="166" font-family="Arial, sans-serif" font-size="12" fill="#e2e8f0">🌿 main (default)</text>
  <rect x="480" y="148" width="120" height="26" rx="6" fill="transparent" stroke="#ef4444" stroke-width="1"/>
  <text x="504" y="166" font-family="Arial, sans-serif" font-size="11" fill="#ef4444">Disconnect Repo</text>

  <!-- ===== VIEW MODE TABS ===== -->
  <rect x="100" y="200" width="94" height="30" rx="16" fill="transparent" stroke="#475569" stroke-width="1"/>
  <text x="118" y="220" font-family="Arial, sans-serif" font-size="11" fill="#94a3b8">🌳 Tree View</text>
  <rect x="204" y="200" width="110" height="30" rx="16" fill="transparent" stroke="#475569" stroke-width="1"/>
  <text x="220" y="220" font-family="Arial, sans-serif" font-size="11" fill="#94a3b8">◇ Package Deps</text>
  <rect x="324" y="200" width="100" height="30" rx="16" fill="transparent" stroke="#475569" stroke-width="1"/>
  <text x="340" y="220" font-family="Arial, sans-serif" font-size="11" fill="#94a3b8">🗺 Code Map</text>
  <rect x="434" y="200" width="68" height="30" rx="16" fill="#f97316"/>
  <text x="448" y="220" font-family="Arial, sans-serif" font-size="11" font-weight="bold" fill="white">🔌 APIs</text>
  <rect x="512" y="200" width="86" height="30" rx="16" fill="transparent" stroke="#475569" stroke-width="1"/>
  <text x="524" y="220" font-family="Arial, sans-serif" font-size="11" fill="#94a3b8">📊 Database</text>
  <rect x="608" y="200" width="78" height="30" rx="16" fill="transparent" stroke="#475569" stroke-width="1"/>
  <text x="620" y="220" font-family="Arial, sans-serif" font-size="11" fill="#94a3b8">💥 Impact</text>
  <rect x="696" y="200" width="90" height="30" rx="16" fill="transparent" stroke="#475569" stroke-width="1"/>
  <text x="710" y="220" font-family="Arial, sans-serif" font-size="11" fill="#94a3b8">🏗 Arch Map</text>

  <!-- ===== FILE COMPOSITION ===== -->
  <rect x="80" y="248" width="1340" height="60" rx="10" fill="#111827" stroke="#1e293b" stroke-width="1"/>
  <text x="110" y="270" font-family="Arial, sans-serif" font-size="12" fill="#94a3b8">File Composition by Size</text>
  <rect x="110" y="280" width="720" height="8" rx="4" fill="#f59e0b"/>
  <rect x="830" y="280" width="180" height="8" rx="0" fill="#3b82f6"/>
  <rect x="1010" y="280" width="100" height="8" rx="0" fill="#94a3b8"/>
  <rect x="1110" y="280" width="70" height="8" rx="0" fill="#06b6d4"/>
  <rect x="1180" y="280" width="50" height="8" rx="0" fill="#a78bfa"/>
  <rect x="1230" y="280" width="60" height="8" rx="0" fill="#f97316"/>
  <rect x="1290" y="280" width="30" height="8" rx="4" fill="#64748b"/>
  <circle cx="115" cy="298" r="3" fill="#f59e0b"/>
  <text x="125" y="302" font-family="Arial, sans-serif" font-size="9" fill="#94a3b8">.js (58.2%)</text>
  <circle cx="210" cy="298" r="3" fill="#3b82f6"/>
  <text x="220" y="302" font-family="Arial, sans-serif" font-size="9" fill="#94a3b8">.tsx (14.8%)</text>
  <circle cx="305" cy="298" r="3" fill="#94a3b8"/>
  <text x="315" y="302" font-family="Arial, sans-serif" font-size="9" fill="#94a3b8">.json (8.1%)</text>
  <circle cx="400" cy="298" r="3" fill="#06b6d4"/>
  <text x="410" y="302" font-family="Arial, sans-serif" font-size="9" fill="#94a3b8">.ts (5.7%)</text>
  <circle cx="480" cy="298" r="3" fill="#a78bfa"/>
  <text x="490" y="302" font-family="Arial, sans-serif" font-size="9" fill="#94a3b8">.css (4.3%)</text>
  <circle cx="560" cy="298" r="3" fill="#f97316"/>
  <text x="570" y="302" font-family="Arial, sans-serif" font-size="9" fill="#94a3b8">.md (3.2%)</text>

  <!-- ===== API ENDPOINTS HEADER ===== -->
  <text x="100" y="340" font-family="Arial, sans-serif" font-size="13" fill="#e2e8f0">Found</text>
  <text x="142" y="340" font-family="Arial, sans-serif" font-size="13" font-weight="bold" fill="#22c55e">9</text>
  <text x="156" y="340" font-family="Arial, sans-serif" font-size="13" fill="#e2e8f0">API endpoints</text>

  <!-- ===== TABLE HEADER ===== -->
  <rect x="80" y="356" width="1340" height="30" fill="#111827"/>
  <text x="120" y="376" font-family="Arial, sans-serif" font-size="12" font-weight="bold" fill="#94a3b8">Method</text>
  <text x="260" y="376" font-family="Arial, sans-serif" font-size="12" font-weight="bold" fill="#94a3b8">Path</text>
  <text x="1080" y="376" font-family="Arial, sans-serif" font-size="12" font-weight="bold" fill="#94a3b8">File</text>

  <!-- ===== TABLE ROWS ===== -->
  <!-- Row 1 -->
  <rect x="80" y="390" width="1340" height="40" fill="transparent"/>
  <line x1="80" y1="430" x2="1420" y2="430" stroke="#1e293b" stroke-width="0.5"/>
  <rect x="120" y="400" width="44" height="20" rx="4" fill="#22c55e"/>
  <text x="142" y="415" text-anchor="middle" font-family="Arial, sans-serif" font-size="10" font-weight="bold" fill="white">GET</text>
  <text x="260" y="416" font-family="Arial, sans-serif" font-size="13" fill="#e2e8f0">/</text>
  <text x="1080" y="416" font-family="Arial, sans-serif" font-size="12" fill="#94a3b8">routes/index.js</text>

  <!-- Row 2 -->
  <rect x="80" y="430" width="1340" height="40" fill="transparent"/>
  <line x1="80" y1="470" x2="1420" y2="470" stroke="#1e293b" stroke-width="0.5"/>
  <rect x="120" y="440" width="44" height="20" rx="4" fill="#22c55e"/>
  <text x="142" y="455" text-anchor="middle" font-family="Arial, sans-serif" font-size="10" font-weight="bold" fill="white">GET</text>
  <text x="260" y="456" font-family="Arial, sans-serif" font-size="13" fill="#e2e8f0">/</text>
  <text x="1080" y="456" font-family="Arial, sans-serif" font-size="12" fill="#94a3b8">routes/products.js</text>

  <!-- Row 3 -->
  <rect x="80" y="470" width="1340" height="40" fill="transparent"/>
  <line x1="80" y1="510" x2="1420" y2="510" stroke="#1e293b" stroke-width="0.5"/>
  <rect x="120" y="480" width="54" height="20" rx="4" fill="#f97316"/>
  <text x="147" y="495" text-anchor="middle" font-family="Arial, sans-serif" font-size="10" font-weight="bold" fill="white">ROUTE</text>
  <text x="260" y="496" font-family="Arial, sans-serif" font-size="13" fill="#e2e8f0">/</text>
  <text x="1080" y="496" font-family="Arial, sans-serif" font-size="12" fill="#94a3b8">app.js</text>

  <!-- Row 4 -->
  <rect x="80" y="510" width="1340" height="40" fill="transparent"/>
  <line x1="80" y1="550" x2="1420" y2="550" stroke="#1e293b" stroke-width="0.5"/>
  <rect x="120" y="520" width="54" height="20" rx="4" fill="#f97316"/>
  <text x="147" y="535" text-anchor="middle" font-family="Arial, sans-serif" font-size="10" font-weight="bold" fill="white">ROUTE</text>
  <text x="260" y="536" font-family="Arial, sans-serif" font-size="13" fill="#e2e8f0">/products</text>
  <text x="1080" y="536" font-family="Arial, sans-serif" font-size="12" fill="#94a3b8">app.js</text>

  <!-- Row 5 -->
  <rect x="80" y="550" width="1340" height="40" fill="transparent"/>
  <line x1="80" y1="590" x2="1420" y2="590" stroke="#1e293b" stroke-width="0.5"/>
  <rect x="120" y="560" width="44" height="20" rx="4" fill="#22c55e"/>
  <text x="142" y="575" text-anchor="middle" font-family="Arial, sans-serif" font-size="10" font-weight="bold" fill="white">GET</text>
  <text x="260" y="576" font-family="Arial, sans-serif" font-size="13" fill="#e2e8f0">env</text>
  <text x="1080" y="576" font-family="Arial, sans-serif" font-size="12" fill="#94a3b8">app.js</text>

  <!-- Row 6 -->
  <rect x="80" y="590" width="1340" height="40" fill="transparent"/>
  <line x1="80" y1="630" x2="1420" y2="630" stroke="#1e293b" stroke-width="0.5"/>
  <rect x="120" y="600" width="54" height="20" rx="4" fill="#f97316"/>
  <text x="147" y="615" text-anchor="middle" font-family="Arial, sans-serif" font-size="10" font-weight="bold" fill="white">ROUTE</text>
  <text x="260" y="616" font-family="Arial, sans-serif" font-size="13" fill="#e2e8f0">/routes</text>
  <text x="1080" y="616" font-family="Arial, sans-serif" font-size="12" fill="#94a3b8">routes/index.js</text>

  <!-- Row 7 -->
  <rect x="80" y="630" width="1340" height="40" fill="transparent"/>
  <line x1="80" y1="670" x2="1420" y2="670" stroke="#1e293b" stroke-width="0.5"/>
  <rect x="120" y="640" width="44" height="20" rx="4" fill="#22c55e"/>
  <text x="142" y="655" text-anchor="middle" font-family="Arial, sans-serif" font-size="10" font-weight="bold" fill="white">GET</text>
  <text x="260" y="656" font-family="Arial, sans-serif" font-size="13" fill="#e2e8f0">/routes</text>
  <text x="1080" y="656" font-family="Arial, sans-serif" font-size="12" fill="#94a3b8">routes/index.js</text>

  <!-- Row 8 -->
  <rect x="80" y="670" width="1340" height="40" fill="transparent"/>
  <line x1="80" y1="710" x2="1420" y2="710" stroke="#1e293b" stroke-width="0.5"/>
  <rect x="120" y="680" width="54" height="20" rx="4" fill="#f97316"/>
  <text x="147" y="695" text-anchor="middle" font-family="Arial, sans-serif" font-size="10" font-weight="bold" fill="white">ROUTE</text>
  <text x="260" y="696" font-family="Arial, sans-serif" font-size="13" fill="#e2e8f0">/routes/products</text>
  <text x="1080" y="696" font-family="Arial, sans-serif" font-size="12" fill="#94a3b8">routes/products.js</text>

  <!-- Row 9 -->
  <rect x="80" y="710" width="1340" height="40" fill="transparent"/>
  <line x1="80" y1="750" x2="1420" y2="750" stroke="#1e293b" stroke-width="0.5"/>
  <rect x="120" y="720" width="44" height="20" rx="4" fill="#22c55e"/>
  <text x="142" y="735" text-anchor="middle" font-family="Arial, sans-serif" font-size="10" font-weight="bold" fill="white">GET</text>
  <text x="260" y="736" font-family="Arial, sans-serif" font-size="13" fill="#e2e8f0">/routes/products</text>
  <text x="1080" y="736" font-family="Arial, sans-serif" font-size="12" fill="#94a3b8">routes/products.js</text>
</svg>